<svg xmlns="http://www.w3.org/2000/svg" fill="none" viewBox="0 0 1084 89"><g filter="url(#a)"><path fill="#fff" d="M113.11 50.138h3.612l6.216-8.736V59h6.72V29.6h-6.72l-8.022 12.39-7.98-12.39h-6.72V59h6.72V41.402l6.174 8.736Zm45.881 4.074L160.503 59h6.804l-9.954-29.4h-7.686L139.755 59h6.762l1.554-4.788h10.92Zm-9.03-5.88 3.57-11.088 3.57 11.088h-7.14Zm49.911-8.568c0-5.67-4.578-10.164-10.164-10.164h-12.306V59h6.72v-9.072h1.47l7.77 9.072h8.232l-8.316-9.702c3.864-1.47 6.594-5.208 6.594-9.534Zm-11.256-4.284c2.352 0 4.284 1.932 4.284 4.284s-1.932 4.284-4.284 4.284h-4.494V35.48h4.494Zm22.632-5.88V59h6.636V29.6h-6.636Zm39.351 23.52h-13.818v-5.88h8.232v-5.88h-8.232v-5.88h12.768V29.6h-19.488V59h20.538v-5.88ZM273.865 59V35.48h8.988V29.6h-24.696v5.88h8.988V59h6.72Zm32.256 0V35.48h8.988V29.6h-24.696v5.88h8.988V59h6.72Zm33.283-4.788L340.916 59h6.804l-9.954-29.4h-7.686L320.168 59h6.762l1.554-4.788h10.92Zm-9.03-5.88 3.57-11.088 3.57 11.088h-7.14Zm60.555 11.508c4.998 0 9.786-2.52 12.684-6.552l-5.796-3.444c-1.512 2.394-3.99 3.822-6.888 3.822-5.082 0-8.526-4.284-8.526-9.366s3.444-9.366 8.526-9.366c2.898 0 5.502 1.638 6.846 3.78l5.586-3.78c-2.94-4.032-7.434-6.174-12.432-6.174-8.652 0-15.54 7.056-15.54 15.54 0 8.652 7.056 15.54 15.54 15.54Zm20.654-15.54c0 8.064 6.804 15.54 15.54 15.54 8.316 0 15.54-7.056 15.54-15.54 0-8.316-7.014-15.54-15.54-15.54-8.358 0-15.54 7.014-15.54 15.54Zm7.014 0c0-4.62 3.444-9.366 8.526-9.366 4.83 0 8.526 4.494 8.526 9.366 0 4.578-3.444 9.366-8.526 9.366-5.04 0-8.316-4.494-8.526-9.366Zm55.877 8.82H460.32V29.6h-6.72V59h20.874v-5.88Zm30.943 0h-14.154V29.6h-6.72V59h20.874v-5.88Zm30.608 0h-13.818v-5.88h8.232v-5.88h-8.232v-5.88h12.768V29.6h-19.488V59h20.538v-5.88Zm23.938 6.72c8.568 0 15.12-6.888 15.246-15.246v-2.226h-14.742v5.88h7.056c-1.218 3.192-3.906 5.418-7.56 5.418-5.082 0-8.526-4.284-8.526-9.366s3.444-9.366 8.526-9.366c2.856 0 5.04 1.428 6.762 3.654.924-.588 4.242-2.898 5.544-3.78-2.898-3.99-7.35-6.048-12.306-6.048-8.652 0-15.54 7.056-15.54 15.54 0 8.652 7.056 15.54 15.54 15.54Zm47.548-6.72h-13.818v-5.88h8.232v-5.88h-8.232v-5.88h12.768V29.6h-19.488V59h20.538v-5.88Zm29.332-23.52V59h6.72v-8.358h6.594c5.838 0 10.5-4.788 10.5-10.542 0-5.838-4.746-10.5-10.5-10.5h-13.314Zm6.72 15.162V35.48h5.46a4.607 4.607 0 0 1 4.62 4.62c0 2.562-2.058 4.662-4.62 4.662h-5.46Zm41.391 9.45L686.466 59h6.804l-9.954-29.4h-7.686L665.718 59h6.762l1.554-4.788h10.92Zm-9.03-5.88 3.57-11.088 3.57 11.088h-7.14Zm49.911-8.568c0-5.67-4.578-10.164-10.164-10.164h-12.306V59h6.72v-9.072h1.47l7.77 9.072h8.232l-8.316-9.702c3.864-1.47 6.594-5.208 6.594-9.534Zm-11.256-4.284c2.352 0 4.284 1.932 4.284 4.284s-1.932 4.284-4.284 4.284h-4.494V35.48h4.494ZM753.507 59h8.274l-12.852-14.952L760.101 29.6h-7.266l-8.484 11.004V29.6h-6.72V59h6.72V48.29L753.507 59Zm17.929-29.4V59h6.636V29.6h-6.636Zm36.327 29.358V59h6.72V29.6h-6.72v16.254L797.431 29.6h-7.602V59h6.72V41.318l11.214 17.64Zm32.745.882c8.568 0 15.12-6.888 15.246-15.246v-2.226h-14.742v5.88h7.056c-1.218 3.192-3.906 5.418-7.56 5.418-5.082 0-8.526-4.284-8.526-9.366s3.444-9.366 8.526-9.366c2.856 0 5.04 1.428 6.762 3.654.924-.588 4.242-2.898 5.544-3.78-2.898-3.99-7.35-6.048-12.306-6.048-8.652 0-15.54 7.056-15.54 15.54 0 8.652 7.056 15.54 15.54 15.54Zm56.596-6.174c-2.52 0-5.838-1.722-7.056-3.822l-5.796 3.444c2.604 3.864 7.728 6.51 12.768 6.51 6.216 0 12.684-2.814 12.684-8.904 0-6.678-6.762-8.526-11.676-9.786-3.108-.798-5.586-1.428-5.586-3.234 0-2.1 2.814-2.94 4.452-2.94 2.856 0 5.544 1.89 6.636 3.78l5.544-3.78c-2.73-3.738-6.93-6.174-12.348-6.174-5.376 0-11.298 3.234-11.298 9.45 0 6.468 6.678 8.358 11.256 9.366 3.444.756 6.006 1.848 6.006 3.528 0 2.646-5.586 2.562-5.586 2.562ZM928.02 59h6.72V48.164l9.87-18.564h-6.552l-6.426 12.432-6.426-12.432h-7.098l9.912 18.69V59Zm35.73-5.334c-2.52 0-5.838-1.722-7.056-3.822l-5.796 3.444c2.604 3.864 7.728 6.51 12.768 6.51 6.216 0 12.684-2.814 12.684-8.904 0-6.678-6.762-8.526-11.676-9.786-3.108-.798-5.586-1.428-5.586-3.234 0-2.1 2.814-2.94 4.452-2.94 2.856 0 5.544 1.89 6.636 3.78l5.544-3.78c-2.73-3.738-6.93-6.174-12.348-6.174-5.376 0-11.298 3.234-11.298 9.45 0 6.468 6.678 8.358 11.256 9.366 3.444.756 6.006 1.848 6.006 3.528 0 2.646-5.586 2.562-5.586 2.562ZM999.641 59V35.48h8.989V29.6h-24.697v5.88h8.988V59h6.72Zm39.609-5.88h-13.82v-5.88h8.23v-5.88h-8.23v-5.88h12.77V29.6h-19.49V59h20.54v-5.88Zm22.97-2.982h3.61l6.22-8.736V59h6.72V29.6h-6.72l-8.02 12.39-7.98-12.39h-6.72V59h6.72V41.402l6.17 8.736Z"/></g><path fill="#fff" fill-rule="evenodd" d="M33.297.096C28.63.453 23.703 1.78 20.03 3.666c-5.396 2.77-10.115 7.026-13.732 12.382-2.247 3.327-4 7.213-4.879 10.817C.56 30.388-.13 40.442.021 47.228c.257 11.45 2.24 19.614 6.27 25.809.84 1.29 1.724 2.318 3.582 4.161 5.12 5.082 10.48 8.324 16.775 10.148 3.145.911 5.354 1.262 8.837 1.4 11.367.455 21.364-4.264 28.446-13.428 5.136-6.646 7.166-13.397 7.913-26.323.703-12.16-1.015-24.466-4.242-30.383C64.23 12.432 58.879 7.215 52.6 3.99 46.85 1.038 39.734-.4 33.297.096Zm5.387 4.895c7.408.692 14.008 3.84 19.319 9.215 5.405 5.47 7.897 11.375 8.787 20.818.38 4.042.109 17.933-.422 21.53-1.27 8.615-6.366 16.874-13.797 22.36-4.227 3.121-10.822 4.872-17.403 4.621-7.701-.293-14.096-2.907-19.882-8.126C8.753 69.517 5.824 62.316 5.158 50.51c-.197-3.503-.05-10.727.359-17.591.443-7.425 3.515-13.858 9.287-19.446 2.055-1.99 3.232-2.914 5.381-4.225 3.817-2.328 7.602-3.624 12.213-4.182 2.333-.282 3.873-.3 6.285-.075Zm-3.662 15.156c-.393.092-.715.24-.715.326 0 .254-4.67.205-4.755-.05-.05-.152-.147-.132-.352.073-.172.172-.216.324-.113.387.11.068.17 2.218.17 5.987v5.881h.926c.898 0 .926-.013.926-.463 0-.432.172-.546 2.502-1.659l2.502-1.194 2.211 1.18c2.009 1.071 2.211 1.22 2.211 1.639 0 .391.087.476.58.569.318.06.77.06 1.005.001l.427-.107.046-6.059c.041-5.418-.036-6.93-.317-6.237-.13.32-3.985.292-4.482-.032-.503-.326-1.895-.448-2.772-.242Zm-3.24 5.871v2.862h-1.178V23.157h1.178v2.861Zm7.07 0v2.862H33.129V23.157H38.852v2.861Zm2.356 0v2.862h-1.01V23.157h1.01v2.861Zm-7.364 6.426c-2.217 1.019-2.23 1.028-2.23 1.592v.567H28.4l.05 1.305.049 1.304 7.532.044 7.533.044v-2.697h-3.367l-.002-.547c-.003-.527-.075-.584-1.95-1.557-1.07-.556-1.997-1.026-2.059-1.045-.062-.019-1.116.427-2.343.99Zm3.124.694c1.183 1.26.055 3.179-1.557 2.647-1.149-.38-1.465-1.569-.668-2.515.36-.429.559-.519 1.149-.519.526 0 .808.102 1.076.387Zm-8.44 5.449c-.062.062-.113 2.41-.113 5.218v5.106H25.554v2.52l1.81-.654c.995-.36 3.383-1.232 5.306-1.938l3.497-1.283 3.489 1.285c1.918.707 4.227 1.537 5.13 1.845l1.64.56V48.925l-1.388-.05-1.389-.048-.044-5.176-.045-5.176H36.1c-4.103 0-7.51.05-7.572.112Zm4.18 11.6c-4.18 1.635-11.826 4.384-14.855 5.34l-2.399.757v-.737c0-.491-.181-1.105-.541-1.835l-.541-1.098h-2.285v5.009l-.922.4c-.508.219-.923.474-.923.567 0 .093.147.49.326.884l.325.715H60.32l.543-.882.542-.881-.925-.468-.925-.468v-4.876l-1.052.002-1.052.002-.547.996c-.392.715-.547 1.214-.547 1.766 0 .567-.065.77-.25.77-.38 0-5.714-1.904-13.196-4.708-3.713-1.392-6.808-2.526-6.878-2.519-.07.007-1.567.575-3.326 1.264ZM11.919 65.734v4.03l1.003 1.246c1.842 2.29 5.39 5.419 7.838 6.91.557.34 1.068.617 1.136.617.067 0 .123-.33.123-.733v-.733l2.128-.118c1.17-.065 2.19-.056 2.266.02.076.075.16.932.186 1.903l.049 1.765 1.15.384c1.374.46 3.21.825 4.92.98l1.252.114v-5.055l.526-.105c.29-.058 1.274-.105 2.189-.105h1.662v5.268l1.598-.113c2.045-.143 4.159-.544 5.177-.982l.8-.343v-3.62l.526-.105c.289-.058 1.236-.105 2.104-.105h1.578v.841c0 .463.048.842.106.842.183 0 1.283-.705 2.335-1.498 1.444-1.087 5.002-4.605 6.074-6.004l.911-1.19v-8.14H11.92v4.03Zm14.308 4.369c0 2.522.041 3.027.253 3.109.139.053.252.25.252.438 0 .328-.1.342-2.44.342H21.85v-.42c0-.263.096-.421.253-.421.215 0 .252-.45.252-3.03v-3.03h3.872v3.012Zm11.783.018c0 2.58.038 3.03.253 3.03.157 0 .252.159.252.42v.421h-4.713v-.42c0-.232.076-.421.168-.421.106 0 .169-1.123.169-3.03v-3.03h3.871v3.03Zm11.952-.018c0 2.522.04 3.027.252 3.109.139.053.253.25.253.438 0 .328-.1.342-2.441.342-2.341 0-2.441-.014-2.441-.342 0-.188.114-.385.252-.439.212-.08.253-.587.253-3.108V67.09h3.871v3.012Z" clip-rule="evenodd"/><defs><filter id="a" width="986.552" height="39.08" x="96.216" y="28.76" color-interpolation-filters="sRGB" filterUnits="userSpaceOnUse"><feFlood flood-opacity="0" result="BackgroundImageFix"/><feColorMatrix in="SourceAlpha" result="hardAlpha" values="0 0 0 0 0 0 0 0 0 0 0 0 0 0 0 0 0 0 127 0"/><feOffset dy="4"/><feGaussianBlur stdDeviation="2"/><feComposite in2="hardAlpha" operator="out"/><feColorMatrix values="0 0 0 0 0 0 0 0 0 0 0 0 0 0 0 0 0 0 0.25 0"/><feBlend in2="BackgroundImageFix" result="effect1_dropShadow_11_11"/><feBlend in="SourceGraphic" in2="effect1_dropShadow_11_11" result="shape"/></filter></defs></svg>